<mxfile host="app.diagrams.net" agent="Mozilla/5.0 (Windows NT 10.0; Win64; x64) AppleWebKit/537.36 (KHTML, like Gecko) Chrome/131.0.0.0 Safari/537.36" version="25.0.1">
  <diagram name="Page-1" id="Piyuxtv0z_m0I4IsLBtO">
    <mxGraphModel dx="2469" dy="1031" grid="1" gridSize="10" guides="1" tooltips="1" connect="1" arrows="1" fold="1" page="1" pageScale="1" pageWidth="850" pageHeight="1100" math="0" shadow="0">
      <root>
        <mxCell id="0" />
        <mxCell id="1" parent="0" />
        <mxCell id="Qv8TDN7jsbcpcPjiKedL-1" value="начало" style="rounded=1;whiteSpace=wrap;html=1;" vertex="1" parent="1">
          <mxGeometry x="320" y="240" width="100" height="40" as="geometry" />
        </mxCell>
        <mxCell id="Qv8TDN7jsbcpcPjiKedL-2" value="инициализация портов" style="rounded=0;whiteSpace=wrap;html=1;" vertex="1" parent="1">
          <mxGeometry x="320" y="320" width="100" height="40" as="geometry" />
        </mxCell>
        <mxCell id="Qv8TDN7jsbcpcPjiKedL-3" value="lcd_init()" style="shape=process;whiteSpace=wrap;html=1;backgroundOutline=1;" vertex="1" parent="1">
          <mxGeometry x="320" y="400" width="100" height="40" as="geometry" />
        </mxCell>
        <mxCell id="Qv8TDN7jsbcpcPjiKedL-5" value="eeprom_init()" style="shape=process;whiteSpace=wrap;html=1;backgroundOutline=1;" vertex="1" parent="1">
          <mxGeometry x="320" y="480" width="100" height="40" as="geometry" />
        </mxCell>
        <mxCell id="Qv8TDN7jsbcpcPjiKedL-10" style="edgeStyle=orthogonalEdgeStyle;rounded=0;orthogonalLoop=1;jettySize=auto;html=1;exitX=0;exitY=0.5;exitDx=0;exitDy=0;entryX=0.5;entryY=0;entryDx=0;entryDy=0;" edge="1" parent="1" source="Qv8TDN7jsbcpcPjiKedL-6" target="Qv8TDN7jsbcpcPjiKedL-7">
          <mxGeometry relative="1" as="geometry" />
        </mxCell>
        <mxCell id="Qv8TDN7jsbcpcPjiKedL-20" style="edgeStyle=orthogonalEdgeStyle;rounded=0;orthogonalLoop=1;jettySize=auto;html=1;exitX=1;exitY=0.5;exitDx=0;exitDy=0;entryX=0.5;entryY=0;entryDx=0;entryDy=0;" edge="1" parent="1" source="Qv8TDN7jsbcpcPjiKedL-6" target="Qv8TDN7jsbcpcPjiKedL-19">
          <mxGeometry relative="1" as="geometry">
            <Array as="points">
              <mxPoint x="430" y="580" />
              <mxPoint x="430" y="810" />
              <mxPoint x="370" y="810" />
            </Array>
          </mxGeometry>
        </mxCell>
        <mxCell id="Qv8TDN7jsbcpcPjiKedL-6" value="true" style="rhombus;whiteSpace=wrap;html=1;" vertex="1" parent="1">
          <mxGeometry x="330" y="560" width="80" height="40" as="geometry" />
        </mxCell>
        <mxCell id="Qv8TDN7jsbcpcPjiKedL-9" style="edgeStyle=orthogonalEdgeStyle;rounded=0;orthogonalLoop=1;jettySize=auto;html=1;exitX=0;exitY=0.5;exitDx=0;exitDy=0;entryX=0.5;entryY=0;entryDx=0;entryDy=0;" edge="1" parent="1" source="Qv8TDN7jsbcpcPjiKedL-7" target="Qv8TDN7jsbcpcPjiKedL-8">
          <mxGeometry relative="1" as="geometry" />
        </mxCell>
        <mxCell id="Qv8TDN7jsbcpcPjiKedL-7" value="нажатие кнопку?" style="rhombus;whiteSpace=wrap;html=1;" vertex="1" parent="1">
          <mxGeometry x="260" y="640" width="90" height="50" as="geometry" />
        </mxCell>
        <mxCell id="Qv8TDN7jsbcpcPjiKedL-8" value="загрузка гос&amp;nbsp;&lt;div&gt;номер&lt;/div&gt;" style="rounded=0;whiteSpace=wrap;html=1;" vertex="1" parent="1">
          <mxGeometry x="190" y="720" width="100" height="40" as="geometry" />
        </mxCell>
        <mxCell id="Qv8TDN7jsbcpcPjiKedL-15" value="" style="endArrow=none;html=1;rounded=0;entryX=0.5;entryY=1;entryDx=0;entryDy=0;exitX=0.5;exitY=0;exitDx=0;exitDy=0;" edge="1" parent="1" source="Qv8TDN7jsbcpcPjiKedL-2" target="Qv8TDN7jsbcpcPjiKedL-1">
          <mxGeometry width="50" height="50" relative="1" as="geometry">
            <mxPoint x="430" y="480" as="sourcePoint" />
            <mxPoint x="480" y="430" as="targetPoint" />
          </mxGeometry>
        </mxCell>
        <mxCell id="Qv8TDN7jsbcpcPjiKedL-16" value="" style="endArrow=none;html=1;rounded=0;entryX=0.5;entryY=1;entryDx=0;entryDy=0;exitX=0.5;exitY=0;exitDx=0;exitDy=0;" edge="1" parent="1">
          <mxGeometry width="50" height="50" relative="1" as="geometry">
            <mxPoint x="369.66" y="400" as="sourcePoint" />
            <mxPoint x="369.66" y="360" as="targetPoint" />
          </mxGeometry>
        </mxCell>
        <mxCell id="Qv8TDN7jsbcpcPjiKedL-17" value="" style="endArrow=none;html=1;rounded=0;entryX=0.5;entryY=1;entryDx=0;entryDy=0;exitX=0.5;exitY=0;exitDx=0;exitDy=0;" edge="1" parent="1">
          <mxGeometry width="50" height="50" relative="1" as="geometry">
            <mxPoint x="369.66" y="480" as="sourcePoint" />
            <mxPoint x="369.66" y="440" as="targetPoint" />
          </mxGeometry>
        </mxCell>
        <mxCell id="Qv8TDN7jsbcpcPjiKedL-18" value="" style="endArrow=none;html=1;rounded=0;entryX=0.5;entryY=1;entryDx=0;entryDy=0;exitX=0.5;exitY=0;exitDx=0;exitDy=0;" edge="1" parent="1">
          <mxGeometry width="50" height="50" relative="1" as="geometry">
            <mxPoint x="369.66" y="560" as="sourcePoint" />
            <mxPoint x="369.66" y="520" as="targetPoint" />
          </mxGeometry>
        </mxCell>
        <mxCell id="Qv8TDN7jsbcpcPjiKedL-19" value="lcd_print&lt;div&gt;(gos_nomer)&lt;/div&gt;" style="shape=process;whiteSpace=wrap;html=1;backgroundOutline=1;" vertex="1" parent="1">
          <mxGeometry x="320" y="850" width="100" height="40" as="geometry" />
        </mxCell>
        <mxCell id="Qv8TDN7jsbcpcPjiKedL-22" value="" style="endArrow=classic;html=1;rounded=0;exitX=0;exitY=0.5;exitDx=0;exitDy=0;" edge="1" parent="1" source="Qv8TDN7jsbcpcPjiKedL-8">
          <mxGeometry width="50" height="50" relative="1" as="geometry">
            <mxPoint x="410" y="740" as="sourcePoint" />
            <mxPoint x="370" y="540" as="targetPoint" />
            <Array as="points">
              <mxPoint x="160" y="740" />
              <mxPoint x="160" y="640" />
              <mxPoint x="160" y="540" />
              <mxPoint x="190" y="540" />
            </Array>
          </mxGeometry>
        </mxCell>
        <mxCell id="Qv8TDN7jsbcpcPjiKedL-27" value="" style="endArrow=none;html=1;rounded=0;entryX=1;entryY=0.5;entryDx=0;entryDy=0;" edge="1" parent="1" target="Qv8TDN7jsbcpcPjiKedL-7">
          <mxGeometry width="50" height="50" relative="1" as="geometry">
            <mxPoint x="160" y="740" as="sourcePoint" />
            <mxPoint x="460" y="690" as="targetPoint" />
            <Array as="points">
              <mxPoint x="160" y="790" />
              <mxPoint x="380" y="790" />
              <mxPoint x="380" y="665" />
            </Array>
          </mxGeometry>
        </mxCell>
        <mxCell id="Qv8TDN7jsbcpcPjiKedL-28" value="Да" style="text;html=1;align=center;verticalAlign=middle;whiteSpace=wrap;rounded=0;" vertex="1" parent="1">
          <mxGeometry x="220" y="630" width="60" height="30" as="geometry" />
        </mxCell>
        <mxCell id="Qv8TDN7jsbcpcPjiKedL-29" value="Да" style="text;html=1;align=center;verticalAlign=middle;whiteSpace=wrap;rounded=0;" vertex="1" parent="1">
          <mxGeometry x="290" y="550" width="60" height="30" as="geometry" />
        </mxCell>
        <mxCell id="Qv8TDN7jsbcpcPjiKedL-30" value="Нет" style="text;html=1;align=center;verticalAlign=middle;whiteSpace=wrap;rounded=0;" vertex="1" parent="1">
          <mxGeometry x="390" y="550" width="60" height="30" as="geometry" />
        </mxCell>
        <mxCell id="Qv8TDN7jsbcpcPjiKedL-31" value="Нет" style="text;html=1;align=center;verticalAlign=middle;whiteSpace=wrap;rounded=0;" vertex="1" parent="1">
          <mxGeometry x="340" y="630" width="60" height="30" as="geometry" />
        </mxCell>
        <mxCell id="Qv8TDN7jsbcpcPjiKedL-32" style="edgeStyle=orthogonalEdgeStyle;rounded=0;orthogonalLoop=1;jettySize=auto;html=1;exitX=0;exitY=0.5;exitDx=0;exitDy=0;entryX=0.5;entryY=0;entryDx=0;entryDy=0;" edge="1" parent="1" source="Qv8TDN7jsbcpcPjiKedL-34" target="Qv8TDN7jsbcpcPjiKedL-36">
          <mxGeometry relative="1" as="geometry" />
        </mxCell>
        <mxCell id="Qv8TDN7jsbcpcPjiKedL-34" value="true" style="rhombus;whiteSpace=wrap;html=1;" vertex="1" parent="1">
          <mxGeometry x="330" y="940" width="80" height="40" as="geometry" />
        </mxCell>
        <mxCell id="Qv8TDN7jsbcpcPjiKedL-35" style="edgeStyle=orthogonalEdgeStyle;rounded=0;orthogonalLoop=1;jettySize=auto;html=1;exitX=0;exitY=0.5;exitDx=0;exitDy=0;entryX=0.5;entryY=0;entryDx=0;entryDy=0;" edge="1" parent="1" source="Qv8TDN7jsbcpcPjiKedL-36" target="Qv8TDN7jsbcpcPjiKedL-37">
          <mxGeometry relative="1" as="geometry" />
        </mxCell>
        <mxCell id="Qv8TDN7jsbcpcPjiKedL-36" value="нажатие кнопку?" style="rhombus;whiteSpace=wrap;html=1;" vertex="1" parent="1">
          <mxGeometry x="260" y="1020" width="90" height="50" as="geometry" />
        </mxCell>
        <mxCell id="Qv8TDN7jsbcpcPjiKedL-37" value="загрузка массы&amp;nbsp;&lt;div&gt;без груза&lt;/div&gt;" style="rounded=0;whiteSpace=wrap;html=1;" vertex="1" parent="1">
          <mxGeometry x="190" y="1100" width="100" height="40" as="geometry" />
        </mxCell>
        <mxCell id="Qv8TDN7jsbcpcPjiKedL-38" value="lcd_print&lt;div&gt;(mass_without_load)&lt;/div&gt;" style="shape=process;whiteSpace=wrap;html=1;backgroundOutline=1;" vertex="1" parent="1">
          <mxGeometry x="295" y="1230" width="150" height="40" as="geometry" />
        </mxCell>
        <mxCell id="Qv8TDN7jsbcpcPjiKedL-39" value="" style="endArrow=classic;html=1;rounded=0;exitX=0;exitY=0.5;exitDx=0;exitDy=0;" edge="1" parent="1" source="Qv8TDN7jsbcpcPjiKedL-37">
          <mxGeometry width="50" height="50" relative="1" as="geometry">
            <mxPoint x="410" y="1120" as="sourcePoint" />
            <mxPoint x="370" y="920" as="targetPoint" />
            <Array as="points">
              <mxPoint x="160" y="1120" />
              <mxPoint x="160" y="1020" />
              <mxPoint x="160" y="920" />
              <mxPoint x="190" y="920" />
            </Array>
          </mxGeometry>
        </mxCell>
        <mxCell id="Qv8TDN7jsbcpcPjiKedL-40" value="" style="endArrow=none;html=1;rounded=0;entryX=1;entryY=0.5;entryDx=0;entryDy=0;" edge="1" parent="1" target="Qv8TDN7jsbcpcPjiKedL-36">
          <mxGeometry width="50" height="50" relative="1" as="geometry">
            <mxPoint x="160" y="1120" as="sourcePoint" />
            <mxPoint x="460" y="1070" as="targetPoint" />
            <Array as="points">
              <mxPoint x="160" y="1170" />
              <mxPoint x="380" y="1170" />
              <mxPoint x="380" y="1045" />
            </Array>
          </mxGeometry>
        </mxCell>
        <mxCell id="Qv8TDN7jsbcpcPjiKedL-41" value="Да" style="text;html=1;align=center;verticalAlign=middle;whiteSpace=wrap;rounded=0;" vertex="1" parent="1">
          <mxGeometry x="220" y="1010" width="60" height="30" as="geometry" />
        </mxCell>
        <mxCell id="Qv8TDN7jsbcpcPjiKedL-42" value="Да" style="text;html=1;align=center;verticalAlign=middle;whiteSpace=wrap;rounded=0;" vertex="1" parent="1">
          <mxGeometry x="290" y="930" width="60" height="30" as="geometry" />
        </mxCell>
        <mxCell id="Qv8TDN7jsbcpcPjiKedL-43" value="Нет" style="text;html=1;align=center;verticalAlign=middle;whiteSpace=wrap;rounded=0;" vertex="1" parent="1">
          <mxGeometry x="390" y="930" width="60" height="30" as="geometry" />
        </mxCell>
        <mxCell id="Qv8TDN7jsbcpcPjiKedL-44" value="Нет" style="text;html=1;align=center;verticalAlign=middle;whiteSpace=wrap;rounded=0;" vertex="1" parent="1">
          <mxGeometry x="340" y="1010" width="60" height="30" as="geometry" />
        </mxCell>
        <mxCell id="Qv8TDN7jsbcpcPjiKedL-45" value="" style="endArrow=none;html=1;rounded=0;entryX=0.5;entryY=1;entryDx=0;entryDy=0;exitX=0.5;exitY=0;exitDx=0;exitDy=0;" edge="1" parent="1" source="Qv8TDN7jsbcpcPjiKedL-34" target="Qv8TDN7jsbcpcPjiKedL-19">
          <mxGeometry width="50" height="50" relative="1" as="geometry">
            <mxPoint x="390" y="870" as="sourcePoint" />
            <mxPoint x="440" y="820" as="targetPoint" />
          </mxGeometry>
        </mxCell>
        <mxCell id="Qv8TDN7jsbcpcPjiKedL-46" value="" style="endArrow=classic;html=1;rounded=0;exitX=1;exitY=0.5;exitDx=0;exitDy=0;entryX=0.5;entryY=0;entryDx=0;entryDy=0;" edge="1" parent="1" source="Qv8TDN7jsbcpcPjiKedL-34" target="Qv8TDN7jsbcpcPjiKedL-38">
          <mxGeometry width="50" height="50" relative="1" as="geometry">
            <mxPoint x="390" y="1060" as="sourcePoint" />
            <mxPoint x="440" y="1010" as="targetPoint" />
            <Array as="points">
              <mxPoint x="440" y="960" />
              <mxPoint x="440" y="1200" />
              <mxPoint x="370" y="1200" />
            </Array>
          </mxGeometry>
        </mxCell>
        <mxCell id="Qv8TDN7jsbcpcPjiKedL-47" style="edgeStyle=orthogonalEdgeStyle;rounded=0;orthogonalLoop=1;jettySize=auto;html=1;exitX=0;exitY=0.5;exitDx=0;exitDy=0;entryX=0.5;entryY=0;entryDx=0;entryDy=0;" edge="1" parent="1" source="Qv8TDN7jsbcpcPjiKedL-48" target="Qv8TDN7jsbcpcPjiKedL-50">
          <mxGeometry relative="1" as="geometry" />
        </mxCell>
        <mxCell id="Qv8TDN7jsbcpcPjiKedL-48" value="true" style="rhombus;whiteSpace=wrap;html=1;" vertex="1" parent="1">
          <mxGeometry x="330" y="1320" width="80" height="40" as="geometry" />
        </mxCell>
        <mxCell id="Qv8TDN7jsbcpcPjiKedL-49" style="edgeStyle=orthogonalEdgeStyle;rounded=0;orthogonalLoop=1;jettySize=auto;html=1;exitX=0;exitY=0.5;exitDx=0;exitDy=0;entryX=0.5;entryY=0;entryDx=0;entryDy=0;" edge="1" parent="1" source="Qv8TDN7jsbcpcPjiKedL-50" target="Qv8TDN7jsbcpcPjiKedL-51">
          <mxGeometry relative="1" as="geometry" />
        </mxCell>
        <mxCell id="Qv8TDN7jsbcpcPjiKedL-50" value="нажатие кнопку?" style="rhombus;whiteSpace=wrap;html=1;" vertex="1" parent="1">
          <mxGeometry x="260" y="1400" width="90" height="50" as="geometry" />
        </mxCell>
        <mxCell id="Qv8TDN7jsbcpcPjiKedL-51" value="загрузка массы&amp;nbsp;&lt;div&gt;с грузом&lt;/div&gt;" style="rounded=0;whiteSpace=wrap;html=1;" vertex="1" parent="1">
          <mxGeometry x="190" y="1480" width="100" height="40" as="geometry" />
        </mxCell>
        <mxCell id="Qv8TDN7jsbcpcPjiKedL-52" value="lcd_print&lt;div&gt;(mass_with_load)&lt;/div&gt;" style="shape=process;whiteSpace=wrap;html=1;backgroundOutline=1;" vertex="1" parent="1">
          <mxGeometry x="300" y="1610" width="150" height="40" as="geometry" />
        </mxCell>
        <mxCell id="Qv8TDN7jsbcpcPjiKedL-53" value="" style="endArrow=classic;html=1;rounded=0;exitX=0;exitY=0.5;exitDx=0;exitDy=0;" edge="1" parent="1" source="Qv8TDN7jsbcpcPjiKedL-51">
          <mxGeometry width="50" height="50" relative="1" as="geometry">
            <mxPoint x="410" y="1500" as="sourcePoint" />
            <mxPoint x="370" y="1300" as="targetPoint" />
            <Array as="points">
              <mxPoint x="160" y="1500" />
              <mxPoint x="160" y="1400" />
              <mxPoint x="160" y="1300" />
              <mxPoint x="190" y="1300" />
            </Array>
          </mxGeometry>
        </mxCell>
        <mxCell id="Qv8TDN7jsbcpcPjiKedL-54" value="" style="endArrow=none;html=1;rounded=0;entryX=1;entryY=0.5;entryDx=0;entryDy=0;" edge="1" parent="1" target="Qv8TDN7jsbcpcPjiKedL-50">
          <mxGeometry width="50" height="50" relative="1" as="geometry">
            <mxPoint x="160" y="1500" as="sourcePoint" />
            <mxPoint x="460" y="1450" as="targetPoint" />
            <Array as="points">
              <mxPoint x="160" y="1550" />
              <mxPoint x="380" y="1550" />
              <mxPoint x="380" y="1425" />
            </Array>
          </mxGeometry>
        </mxCell>
        <mxCell id="Qv8TDN7jsbcpcPjiKedL-55" value="Да" style="text;html=1;align=center;verticalAlign=middle;whiteSpace=wrap;rounded=0;" vertex="1" parent="1">
          <mxGeometry x="220" y="1390" width="60" height="30" as="geometry" />
        </mxCell>
        <mxCell id="Qv8TDN7jsbcpcPjiKedL-56" value="Да" style="text;html=1;align=center;verticalAlign=middle;whiteSpace=wrap;rounded=0;" vertex="1" parent="1">
          <mxGeometry x="290" y="1310" width="60" height="30" as="geometry" />
        </mxCell>
        <mxCell id="Qv8TDN7jsbcpcPjiKedL-57" value="Нет" style="text;html=1;align=center;verticalAlign=middle;whiteSpace=wrap;rounded=0;" vertex="1" parent="1">
          <mxGeometry x="390" y="1310" width="60" height="30" as="geometry" />
        </mxCell>
        <mxCell id="Qv8TDN7jsbcpcPjiKedL-58" value="Нет" style="text;html=1;align=center;verticalAlign=middle;whiteSpace=wrap;rounded=0;" vertex="1" parent="1">
          <mxGeometry x="340" y="1390" width="60" height="30" as="geometry" />
        </mxCell>
        <mxCell id="Qv8TDN7jsbcpcPjiKedL-59" value="" style="endArrow=classic;html=1;rounded=0;exitX=1;exitY=0.5;exitDx=0;exitDy=0;entryX=0.5;entryY=0;entryDx=0;entryDy=0;" edge="1" parent="1" source="Qv8TDN7jsbcpcPjiKedL-48" target="Qv8TDN7jsbcpcPjiKedL-52">
          <mxGeometry width="50" height="50" relative="1" as="geometry">
            <mxPoint x="390" y="1440" as="sourcePoint" />
            <mxPoint x="440" y="1390" as="targetPoint" />
            <Array as="points">
              <mxPoint x="440" y="1340" />
              <mxPoint x="440" y="1580" />
              <mxPoint x="375" y="1580" />
            </Array>
          </mxGeometry>
        </mxCell>
        <mxCell id="Qv8TDN7jsbcpcPjiKedL-60" value="" style="endArrow=none;html=1;rounded=0;entryX=0.5;entryY=1;entryDx=0;entryDy=0;exitX=0.5;exitY=0;exitDx=0;exitDy=0;" edge="1" parent="1" source="Qv8TDN7jsbcpcPjiKedL-48" target="Qv8TDN7jsbcpcPjiKedL-38">
          <mxGeometry width="50" height="50" relative="1" as="geometry">
            <mxPoint x="400" y="1300" as="sourcePoint" />
            <mxPoint x="450" y="1250" as="targetPoint" />
          </mxGeometry>
        </mxCell>
        <mxCell id="Qv8TDN7jsbcpcPjiKedL-61" value="инициализация&lt;div&gt;comparing&lt;/div&gt;" style="rounded=0;whiteSpace=wrap;html=1;" vertex="1" parent="1">
          <mxGeometry x="322.5" y="1690" width="105" height="40" as="geometry" />
        </mxCell>
        <mxCell id="Qv8TDN7jsbcpcPjiKedL-62" value="" style="endArrow=none;html=1;rounded=0;entryX=0.5;entryY=1;entryDx=0;entryDy=0;exitX=0.5;exitY=0;exitDx=0;exitDy=0;" edge="1" parent="1" source="Qv8TDN7jsbcpcPjiKedL-61" target="Qv8TDN7jsbcpcPjiKedL-52">
          <mxGeometry width="50" height="50" relative="1" as="geometry">
            <mxPoint x="430" y="1630" as="sourcePoint" />
            <mxPoint x="480" y="1580" as="targetPoint" />
          </mxGeometry>
        </mxCell>
        <mxCell id="Qv8TDN7jsbcpcPjiKedL-63" value="итерация по&amp;nbsp;&lt;div&gt;данным из eeprom&lt;/div&gt;" style="shape=hexagon;perimeter=hexagonPerimeter2;whiteSpace=wrap;html=1;fixedSize=1;" vertex="1" parent="1">
          <mxGeometry x="307.5" y="1760" width="135" height="40" as="geometry" />
        </mxCell>
        <mxCell id="Qv8TDN7jsbcpcPjiKedL-64" value="" style="endArrow=none;html=1;rounded=0;entryX=0.5;entryY=1;entryDx=0;entryDy=0;exitX=0.5;exitY=0;exitDx=0;exitDy=0;" edge="1" parent="1" source="Qv8TDN7jsbcpcPjiKedL-63" target="Qv8TDN7jsbcpcPjiKedL-61">
          <mxGeometry width="50" height="50" relative="1" as="geometry">
            <mxPoint x="400" y="1770" as="sourcePoint" />
            <mxPoint x="450" y="1720" as="targetPoint" />
          </mxGeometry>
        </mxCell>
        <mxCell id="Qv8TDN7jsbcpcPjiKedL-65" value="gos_nomer ? &amp;amp;&amp;amp;&lt;br&gt;mass_without_load ? &amp;amp;&amp;amp;&amp;nbsp;&lt;br&gt;mass_with_load ?" style="rhombus;whiteSpace=wrap;html=1;" vertex="1" parent="1">
          <mxGeometry x="287.5" y="1840" width="175" height="100" as="geometry" />
        </mxCell>
        <mxCell id="Qv8TDN7jsbcpcPjiKedL-66" value="" style="endArrow=none;html=1;rounded=0;entryX=0.5;entryY=1;entryDx=0;entryDy=0;exitX=0.5;exitY=0;exitDx=0;exitDy=0;" edge="1" parent="1" source="Qv8TDN7jsbcpcPjiKedL-65" target="Qv8TDN7jsbcpcPjiKedL-63">
          <mxGeometry width="50" height="50" relative="1" as="geometry">
            <mxPoint x="390" y="1860" as="sourcePoint" />
            <mxPoint x="440" y="1810" as="targetPoint" />
          </mxGeometry>
        </mxCell>
        <mxCell id="Qv8TDN7jsbcpcPjiKedL-67" value="comparing = true" style="rounded=0;whiteSpace=wrap;html=1;" vertex="1" parent="1">
          <mxGeometry x="460" y="1960" width="80" height="40" as="geometry" />
        </mxCell>
        <mxCell id="Qv8TDN7jsbcpcPjiKedL-70" value="" style="endArrow=classic;html=1;rounded=0;exitX=0;exitY=0.5;exitDx=0;exitDy=0;entryX=0;entryY=0.5;entryDx=0;entryDy=0;" edge="1" parent="1" source="Qv8TDN7jsbcpcPjiKedL-65" target="Qv8TDN7jsbcpcPjiKedL-63">
          <mxGeometry width="50" height="50" relative="1" as="geometry">
            <mxPoint x="330" y="1910" as="sourcePoint" />
            <mxPoint x="380" y="1860" as="targetPoint" />
            <Array as="points">
              <mxPoint x="270" y="1890" />
              <mxPoint x="270" y="1780" />
            </Array>
          </mxGeometry>
        </mxCell>
        <mxCell id="Qv8TDN7jsbcpcPjiKedL-71" value="Совпадают ?" style="rhombus;whiteSpace=wrap;html=1;" vertex="1" parent="1">
          <mxGeometry x="312.5" y="2040" width="115" height="60" as="geometry" />
        </mxCell>
        <mxCell id="Qv8TDN7jsbcpcPjiKedL-73" value="" style="endArrow=none;html=1;rounded=0;exitX=1;exitY=0.5;exitDx=0;exitDy=0;entryX=0.5;entryY=0;entryDx=0;entryDy=0;" edge="1" parent="1" source="Qv8TDN7jsbcpcPjiKedL-63" target="Qv8TDN7jsbcpcPjiKedL-71">
          <mxGeometry width="50" height="50" relative="1" as="geometry">
            <mxPoint x="440" y="1940" as="sourcePoint" />
            <mxPoint x="370" y="2020" as="targetPoint" />
            <Array as="points">
              <mxPoint x="570" y="1780" />
              <mxPoint x="570" y="2020" />
              <mxPoint x="370" y="2020" />
            </Array>
          </mxGeometry>
        </mxCell>
        <mxCell id="Qv8TDN7jsbcpcPjiKedL-75" value="" style="endArrow=none;html=1;rounded=0;entryX=0.5;entryY=1;entryDx=0;entryDy=0;" edge="1" parent="1" target="Qv8TDN7jsbcpcPjiKedL-67">
          <mxGeometry width="50" height="50" relative="1" as="geometry">
            <mxPoint x="500" y="2020" as="sourcePoint" />
            <mxPoint x="530" y="1980" as="targetPoint" />
          </mxGeometry>
        </mxCell>
        <mxCell id="Qv8TDN7jsbcpcPjiKedL-76" value="" style="endArrow=classic;html=1;rounded=0;exitX=1;exitY=0.5;exitDx=0;exitDy=0;entryX=0.5;entryY=0;entryDx=0;entryDy=0;" edge="1" parent="1" source="Qv8TDN7jsbcpcPjiKedL-65" target="Qv8TDN7jsbcpcPjiKedL-67">
          <mxGeometry width="50" height="50" relative="1" as="geometry">
            <mxPoint x="510" y="1930" as="sourcePoint" />
            <mxPoint x="560" y="1880" as="targetPoint" />
            <Array as="points">
              <mxPoint x="500" y="1890" />
            </Array>
          </mxGeometry>
        </mxCell>
        <mxCell id="Qv8TDN7jsbcpcPjiKedL-77" value="Да" style="text;html=1;align=center;verticalAlign=middle;whiteSpace=wrap;rounded=0;" vertex="1" parent="1">
          <mxGeometry x="450" y="1850" width="60" height="30" as="geometry" />
        </mxCell>
        <mxCell id="Qv8TDN7jsbcpcPjiKedL-78" value="Нет" style="text;html=1;align=center;verticalAlign=middle;whiteSpace=wrap;rounded=0;" vertex="1" parent="1">
          <mxGeometry x="270" y="1840" width="60" height="30" as="geometry" />
        </mxCell>
        <mxCell id="Qv8TDN7jsbcpcPjiKedL-79" value="lcd_print&lt;div&gt;(&quot;match&quot;)&lt;/div&gt;" style="shape=process;whiteSpace=wrap;html=1;backgroundOutline=1;" vertex="1" parent="1">
          <mxGeometry x="200" y="2120" width="100" height="40" as="geometry" />
        </mxCell>
        <mxCell id="Qv8TDN7jsbcpcPjiKedL-80" value="lcd_print&lt;div&gt;(&quot;not match&quot;)&lt;/div&gt;" style="shape=process;whiteSpace=wrap;html=1;backgroundOutline=1;" vertex="1" parent="1">
          <mxGeometry x="430" y="2120" width="100" height="40" as="geometry" />
        </mxCell>
        <mxCell id="Qv8TDN7jsbcpcPjiKedL-81" value="toggle_&lt;div&gt;buzzer()&lt;/div&gt;" style="shape=process;whiteSpace=wrap;html=1;backgroundOutline=1;" vertex="1" parent="1">
          <mxGeometry x="430" y="2200" width="100" height="40" as="geometry" />
        </mxCell>
        <mxCell id="Qv8TDN7jsbcpcPjiKedL-84" value="" style="endArrow=classic;html=1;rounded=0;exitX=0;exitY=0.5;exitDx=0;exitDy=0;entryX=0.5;entryY=0;entryDx=0;entryDy=0;" edge="1" parent="1" source="Qv8TDN7jsbcpcPjiKedL-71" target="Qv8TDN7jsbcpcPjiKedL-79">
          <mxGeometry width="50" height="50" relative="1" as="geometry">
            <mxPoint x="300" y="2130" as="sourcePoint" />
            <mxPoint x="350" y="2080" as="targetPoint" />
            <Array as="points">
              <mxPoint x="250" y="2070" />
            </Array>
          </mxGeometry>
        </mxCell>
        <mxCell id="Qv8TDN7jsbcpcPjiKedL-85" value="" style="endArrow=classic;html=1;rounded=0;exitX=1;exitY=0.5;exitDx=0;exitDy=0;entryX=0.5;entryY=0;entryDx=0;entryDy=0;" edge="1" parent="1" source="Qv8TDN7jsbcpcPjiKedL-71" target="Qv8TDN7jsbcpcPjiKedL-80">
          <mxGeometry width="50" height="50" relative="1" as="geometry">
            <mxPoint x="460" y="2150" as="sourcePoint" />
            <mxPoint x="510" y="2100" as="targetPoint" />
            <Array as="points">
              <mxPoint x="480" y="2070" />
            </Array>
          </mxGeometry>
        </mxCell>
        <mxCell id="Qv8TDN7jsbcpcPjiKedL-86" value="" style="endArrow=none;html=1;rounded=0;entryX=0.5;entryY=1;entryDx=0;entryDy=0;exitX=0.5;exitY=0;exitDx=0;exitDy=0;" edge="1" parent="1" source="Qv8TDN7jsbcpcPjiKedL-81" target="Qv8TDN7jsbcpcPjiKedL-80">
          <mxGeometry width="50" height="50" relative="1" as="geometry">
            <mxPoint x="440" y="2230" as="sourcePoint" />
            <mxPoint x="490" y="2180" as="targetPoint" />
          </mxGeometry>
        </mxCell>
        <mxCell id="Qv8TDN7jsbcpcPjiKedL-87" value="конец" style="rounded=1;whiteSpace=wrap;html=1;" vertex="1" parent="1">
          <mxGeometry x="320" y="2280" width="100" height="40" as="geometry" />
        </mxCell>
        <mxCell id="Qv8TDN7jsbcpcPjiKedL-88" value="" style="endArrow=none;html=1;rounded=0;entryX=0.5;entryY=1;entryDx=0;entryDy=0;exitX=0.5;exitY=0;exitDx=0;exitDy=0;" edge="1" parent="1" source="Qv8TDN7jsbcpcPjiKedL-87" target="Qv8TDN7jsbcpcPjiKedL-81">
          <mxGeometry width="50" height="50" relative="1" as="geometry">
            <mxPoint x="340" y="2250" as="sourcePoint" />
            <mxPoint x="390" y="2200" as="targetPoint" />
            <Array as="points">
              <mxPoint x="370" y="2260" />
              <mxPoint x="480" y="2260" />
            </Array>
          </mxGeometry>
        </mxCell>
        <mxCell id="Qv8TDN7jsbcpcPjiKedL-89" value="" style="endArrow=none;html=1;rounded=0;entryX=0.5;entryY=1;entryDx=0;entryDy=0;" edge="1" parent="1" target="Qv8TDN7jsbcpcPjiKedL-79">
          <mxGeometry width="50" height="50" relative="1" as="geometry">
            <mxPoint x="370" y="2260" as="sourcePoint" />
            <mxPoint x="390" y="2200" as="targetPoint" />
            <Array as="points">
              <mxPoint x="250" y="2260" />
            </Array>
          </mxGeometry>
        </mxCell>
        <mxCell id="Qv8TDN7jsbcpcPjiKedL-90" value="Да" style="text;html=1;align=center;verticalAlign=middle;whiteSpace=wrap;rounded=0;" vertex="1" parent="1">
          <mxGeometry x="252.5" y="2040" width="60" height="30" as="geometry" />
        </mxCell>
        <mxCell id="Qv8TDN7jsbcpcPjiKedL-91" value="Нет" style="text;html=1;align=center;verticalAlign=middle;whiteSpace=wrap;rounded=0;" vertex="1" parent="1">
          <mxGeometry x="425" y="2040" width="60" height="30" as="geometry" />
        </mxCell>
      </root>
    </mxGraphModel>
  </diagram>
</mxfile>
